<svg xmlns="http://www.w3.org/2000/svg" xmlns:xlink="http://www.w3.org/1999/xlink" width="60" zoomAndPan="magnify" viewBox="0 0 45 44.999999" height="60" preserveAspectRatio="xMidYMid meet" version="1.0"><defs><g/></defs><g fill="#231f20" fill-opacity="1"><g transform="translate(7.432218, 23.992038)"><g><path d="M -0.65625 -0.734375 C -0.632812 -0.554688 -0.671875 -0.410156 -0.765625 -0.296875 C -0.859375 -0.191406 -0.984375 -0.128906 -1.140625 -0.109375 C -1.316406 -0.078125 -1.46875 -0.109375 -1.59375 -0.203125 C -1.726562 -0.296875 -1.804688 -0.429688 -1.828125 -0.609375 C -1.847656 -0.773438 -1.8125 -0.914062 -1.71875 -1.03125 C -1.632812 -1.15625 -1.507812 -1.226562 -1.34375 -1.25 C -1.164062 -1.28125 -1.007812 -1.242188 -0.875 -1.140625 C -0.75 -1.046875 -0.675781 -0.910156 -0.65625 -0.734375 Z M -0.65625 -0.734375 "/></g></g></g><g fill="#231f20" fill-opacity="1"><g transform="translate(7.186527, 20.820157)"><g/></g></g><g fill="#231f20" fill-opacity="1"><g transform="translate(7.426039, 18.425367)"><g/></g></g><g fill="#231f20" fill-opacity="1"><g transform="translate(8.010573, 16.125542)"><g><path d="M 0.515625 0.15625 L 0.5 0.125 C 0.445312 -0.0195312 0.394531 -0.140625 0.34375 -0.234375 C 0.289062 -0.335938 0.207031 -0.425781 0.09375 -0.5 C -0.0195312 -0.570312 -0.171875 -0.648438 -0.359375 -0.734375 L -2.1875 -1.46875 C -2.28125 -1.507812 -2.347656 -1.523438 -2.390625 -1.515625 C -2.429688 -1.503906 -2.460938 -1.460938 -2.484375 -1.390625 C -2.503906 -1.359375 -2.519531 -1.320312 -2.53125 -1.28125 C -2.539062 -1.25 -2.550781 -1.222656 -2.5625 -1.203125 L -2.609375 -1.1875 L -2.859375 -1.34375 L -2.640625 -1.890625 C -2.585938 -2.015625 -2.535156 -2.148438 -2.484375 -2.296875 C -2.429688 -2.453125 -2.398438 -2.550781 -2.390625 -2.59375 L -2.09375 -2.453125 C -2.113281 -2.335938 -2.113281 -2.257812 -2.09375 -2.21875 C -2.082031 -2.175781 -2.035156 -2.132812 -1.953125 -2.09375 C -1.742188 -2.007812 -1.429688 -1.875 -1.015625 -1.6875 C -0.597656 -1.5 -0.269531 -1.359375 -0.03125 -1.265625 C 0.269531 -1.140625 0.484375 -0.96875 0.609375 -0.75 C 0.734375 -0.53125 0.785156 -0.242188 0.765625 0.109375 Z M 0.515625 0.15625 "/></g></g></g><g fill="#231f20" fill-opacity="1"><g transform="translate(9.22983, 13.330638)"><g><path d="M 0.96875 -1.21875 C 0.519531 -0.613281 0.0078125 -0.519531 -0.5625 -0.9375 L -1.828125 -1.875 C -1.910156 -1.9375 -1.96875 -1.96875 -2 -1.96875 C -2.039062 -1.96875 -2.082031 -1.941406 -2.125 -1.890625 C -2.144531 -1.859375 -2.160156 -1.828125 -2.171875 -1.796875 C -2.191406 -1.773438 -2.207031 -1.765625 -2.21875 -1.765625 L -2.46875 -1.984375 C -2.4375 -2.015625 -2.378906 -2.082031 -2.296875 -2.1875 C -2.222656 -2.300781 -2.144531 -2.421875 -2.0625 -2.546875 C -2.007812 -2.609375 -1.941406 -2.691406 -1.859375 -2.796875 C -1.785156 -2.898438 -1.738281 -2.96875 -1.71875 -3 L -1.484375 -2.8125 C -1.535156 -2.707031 -1.554688 -2.628906 -1.546875 -2.578125 C -1.535156 -2.523438 -1.5 -2.472656 -1.4375 -2.421875 L -0.3125 -1.546875 C -0.101562 -1.398438 0.0859375 -1.328125 0.265625 -1.328125 C 0.441406 -1.335938 0.585938 -1.421875 0.703125 -1.578125 C 0.941406 -1.898438 0.882812 -2.191406 0.53125 -2.453125 C 0.332031 -2.597656 0.101562 -2.765625 -0.15625 -2.953125 C -0.414062 -3.140625 -0.601562 -3.273438 -0.71875 -3.359375 C -0.8125 -3.421875 -0.875 -3.453125 -0.90625 -3.453125 C -0.945312 -3.453125 -0.984375 -3.425781 -1.015625 -3.375 C -1.035156 -3.351562 -1.054688 -3.328125 -1.078125 -3.296875 C -1.097656 -3.265625 -1.113281 -3.25 -1.125 -3.25 L -1.375 -3.46875 C -1.34375 -3.5 -1.289062 -3.5625 -1.21875 -3.65625 C -1.15625 -3.75 -1.09375 -3.84375 -1.03125 -3.9375 C -0.96875 -4.019531 -0.898438 -4.109375 -0.828125 -4.203125 C -0.753906 -4.304688 -0.707031 -4.375 -0.6875 -4.40625 L -0.453125 -4.203125 C -0.492188 -4.109375 -0.515625 -4.039062 -0.515625 -4 C -0.523438 -3.96875 -0.519531 -3.9375 -0.5 -3.90625 C -0.488281 -3.875 -0.460938 -3.84375 -0.421875 -3.8125 L 0.796875 -2.90625 C 1.097656 -2.6875 1.265625 -2.429688 1.296875 -2.140625 C 1.328125 -1.859375 1.21875 -1.550781 0.96875 -1.21875 Z M 0.96875 -1.21875 "/></g></g></g><g fill="#231f20" fill-opacity="1"><g transform="translate(12.134965, 9.782031)"><g><path d="M 0.890625 -0.609375 C 0.773438 -0.523438 0.65625 -0.453125 0.53125 -0.390625 C 0.414062 -0.335938 0.3125 -0.296875 0.21875 -0.265625 C 0.132812 -0.242188 0.09375 -0.234375 0.09375 -0.234375 L 0.03125 -0.265625 C 0.0195312 -0.285156 -0.00390625 -0.332031 -0.046875 -0.40625 C -0.0859375 -0.476562 -0.140625 -0.566406 -0.203125 -0.671875 C -0.273438 -0.773438 -0.347656 -0.875 -0.421875 -0.96875 L -0.125 -1.25 C -0.0078125 -1.101562 0.0859375 -1 0.171875 -0.9375 C 0.265625 -0.882812 0.347656 -0.863281 0.421875 -0.875 C 0.503906 -0.882812 0.601562 -0.9375 0.71875 -1.03125 C 0.84375 -1.125 0.921875 -1.226562 0.953125 -1.34375 C 0.992188 -1.457031 0.984375 -1.5625 0.921875 -1.65625 C 0.847656 -1.75 0.75 -1.789062 0.625 -1.78125 C 0.5 -1.769531 0.316406 -1.742188 0.078125 -1.703125 C 0.0664062 -1.710938 0.0351562 -1.703125 -0.015625 -1.671875 C -0.285156 -1.628906 -0.515625 -1.617188 -0.703125 -1.640625 C -0.898438 -1.660156 -1.0625 -1.75 -1.1875 -1.90625 C -1.300781 -2.0625 -1.359375 -2.226562 -1.359375 -2.40625 C -1.359375 -2.582031 -1.304688 -2.765625 -1.203125 -2.953125 C -1.097656 -3.140625 -0.941406 -3.316406 -0.734375 -3.484375 C -0.628906 -3.566406 -0.519531 -3.632812 -0.40625 -3.6875 C -0.300781 -3.75 -0.210938 -3.796875 -0.140625 -3.828125 C -0.078125 -3.859375 -0.03125 -3.875 0 -3.875 L 0.046875 -3.84375 C 0.0664062 -3.820312 0.09375 -3.773438 0.125 -3.703125 C 0.164062 -3.640625 0.21875 -3.550781 0.28125 -3.4375 C 0.34375 -3.332031 0.410156 -3.222656 0.484375 -3.109375 L 0.203125 -2.859375 L 0.15625 -2.859375 C 0.15625 -2.867188 0.144531 -2.882812 0.125 -2.90625 C 0.101562 -2.9375 0.0820312 -2.96875 0.0625 -3 C -0.0390625 -3.125 -0.132812 -3.1875 -0.21875 -3.1875 C -0.3125 -3.195312 -0.425781 -3.144531 -0.5625 -3.03125 C -0.675781 -2.945312 -0.75 -2.851562 -0.78125 -2.75 C -0.8125 -2.644531 -0.796875 -2.550781 -0.734375 -2.46875 C -0.679688 -2.40625 -0.613281 -2.363281 -0.53125 -2.34375 C -0.457031 -2.332031 -0.375 -2.332031 -0.28125 -2.34375 C -0.1875 -2.351562 -0.0546875 -2.378906 0.109375 -2.421875 C 0.316406 -2.441406 0.488281 -2.457031 0.625 -2.46875 C 0.757812 -2.488281 0.894531 -2.484375 1.03125 -2.453125 C 1.164062 -2.421875 1.28125 -2.34375 1.375 -2.21875 C 1.488281 -2.070312 1.546875 -1.90625 1.546875 -1.71875 C 1.546875 -1.53125 1.488281 -1.335938 1.375 -1.140625 C 1.257812 -0.953125 1.097656 -0.773438 0.890625 -0.609375 Z M 0.890625 -0.609375 "/></g></g></g><g fill="#231f20" fill-opacity="1"><g transform="translate(15.435009, 7.467205)"><g><path d="M 0.421875 -0.5 C 0.546875 -0.5625 0.632812 -0.613281 0.6875 -0.65625 C 0.75 -0.707031 0.773438 -0.765625 0.765625 -0.828125 C 0.765625 -0.898438 0.734375 -1.007812 0.671875 -1.15625 L -0.0625 -2.984375 C -0.238281 -2.898438 -0.359375 -2.828125 -0.421875 -2.765625 C -0.484375 -2.710938 -0.507812 -2.644531 -0.5 -2.5625 C -0.5 -2.476562 -0.472656 -2.335938 -0.421875 -2.140625 L -0.765625 -1.96875 C -0.847656 -2.226562 -0.96875 -2.554688 -1.125 -2.953125 L -1.09375 -3.015625 L -0.625 -3.15625 L 0.796875 -3.734375 L 1.234375 -3.96875 L 1.296875 -3.953125 C 1.460938 -3.585938 1.609375 -3.28125 1.734375 -3.03125 L 1.375 -2.84375 C 1.269531 -3.03125 1.1875 -3.15625 1.125 -3.21875 C 1.070312 -3.289062 1.003906 -3.328125 0.921875 -3.328125 C 0.847656 -3.328125 0.734375 -3.296875 0.578125 -3.234375 C 0.648438 -3.003906 0.757812 -2.691406 0.90625 -2.296875 C 1.050781 -1.910156 1.1875 -1.5625 1.3125 -1.25 C 1.363281 -1.132812 1.414062 -1.0625 1.46875 -1.03125 C 1.519531 -1 1.59375 -1 1.6875 -1.03125 C 1.757812 -1.0625 1.835938 -1.097656 1.921875 -1.140625 L 1.9375 -1.140625 L 2.03125 -0.8125 C 1.707031 -0.695312 1.445312 -0.597656 1.25 -0.515625 C 1.09375 -0.453125 0.84375 -0.335938 0.5 -0.171875 Z M 0.421875 -0.5 "/></g></g></g><g fill="#231f20" fill-opacity="1"><g transform="translate(19.44828, 6.103112)"><g/></g></g><g fill="#231f20" fill-opacity="1"><g transform="translate(21.756586, 5.759508)"><g><path d="M 0.265625 -0.265625 C 0.390625 -0.285156 0.472656 -0.320312 0.515625 -0.375 C 0.566406 -0.4375 0.597656 -0.539062 0.609375 -0.6875 L 0.671875 -2.5625 C 0.671875 -2.664062 0.660156 -2.734375 0.640625 -2.765625 C 0.617188 -2.796875 0.570312 -2.8125 0.5 -2.8125 L 0.34375 -2.8125 L 0.3125 -2.875 L 0.375 -3.140625 L 1.03125 -3.125 C 1.125 -3.125 1.253906 -3.125 1.421875 -3.125 C 1.597656 -3.125 1.71875 -3.125 1.78125 -3.125 L 1.734375 -2.78125 C 1.617188 -2.78125 1.535156 -2.765625 1.484375 -2.734375 C 1.429688 -2.710938 1.394531 -2.679688 1.375 -2.640625 C 1.363281 -2.597656 1.351562 -2.53125 1.34375 -2.4375 C 1.289062 -1.9375 1.25 -1.332031 1.21875 -0.625 C 1.21875 -0.539062 1.222656 -0.476562 1.234375 -0.4375 C 1.253906 -0.394531 1.285156 -0.363281 1.328125 -0.34375 C 1.378906 -0.332031 1.445312 -0.328125 1.53125 -0.328125 C 1.695312 -0.316406 1.816406 -0.328125 1.890625 -0.359375 C 1.972656 -0.398438 2.035156 -0.46875 2.078125 -0.5625 C 2.128906 -0.664062 2.164062 -0.828125 2.1875 -1.046875 L 2.59375 -1.078125 L 2.625 -1.015625 C 2.613281 -0.953125 2.59375 -0.816406 2.5625 -0.609375 C 2.53125 -0.398438 2.5 -0.175781 2.46875 0.0625 L 2.40625 0.125 C 2.320312 0.113281 2.128906 0.0976562 1.828125 0.078125 C 1.535156 0.0546875 1.273438 0.0390625 1.046875 0.03125 C 0.859375 0.03125 0.679688 0.0351562 0.515625 0.046875 C 0.359375 0.0546875 0.257812 0.0546875 0.21875 0.046875 Z M 0.265625 -0.265625 "/></g></g></g><g fill="#231f20" fill-opacity="1"><g transform="translate(25.729366, 6.058249)"><g><path d="M 2.890625 -0.0625 C 2.753906 0.164062 2.613281 0.441406 2.46875 0.765625 L 2.421875 0.796875 C 1.828125 0.585938 1.347656 0.425781 0.984375 0.3125 C 0.710938 0.226562 0.4375 0.160156 0.15625 0.109375 L 0.28125 -0.203125 C 0.425781 -0.179688 0.53125 -0.191406 0.59375 -0.234375 C 0.65625 -0.273438 0.707031 -0.363281 0.75 -0.5 L 1.3125 -2.28125 C 1.34375 -2.382812 1.351562 -2.453125 1.34375 -2.484375 C 1.332031 -2.523438 1.300781 -2.554688 1.25 -2.578125 C 1.207031 -2.585938 1.15625 -2.601562 1.09375 -2.625 L 1.078125 -2.6875 L 1.21875 -2.953125 L 1.3125 -2.921875 C 1.519531 -2.835938 1.769531 -2.753906 2.0625 -2.671875 C 2.75 -2.453125 3.222656 -2.316406 3.484375 -2.265625 L 3.515625 -2.203125 C 3.453125 -2.085938 3.382812 -1.953125 3.3125 -1.796875 C 3.238281 -1.648438 3.175781 -1.515625 3.125 -1.390625 L 2.734375 -1.484375 L 2.796875 -1.6875 C 2.816406 -1.769531 2.820312 -1.832031 2.8125 -1.875 C 2.800781 -1.925781 2.757812 -1.972656 2.6875 -2.015625 C 2.613281 -2.054688 2.484375 -2.109375 2.296875 -2.171875 C 2.210938 -2.191406 2.148438 -2.203125 2.109375 -2.203125 C 2.078125 -2.210938 2.050781 -2.207031 2.03125 -2.1875 C 2.007812 -2.164062 1.988281 -2.128906 1.96875 -2.078125 L 1.71875 -1.359375 L 2.15625 -1.234375 C 2.226562 -1.210938 2.3125 -1.1875 2.40625 -1.15625 C 2.507812 -1.132812 2.609375 -1.113281 2.703125 -1.09375 L 2.734375 -1.046875 L 2.546875 -0.65625 C 2.515625 -0.675781 2.488281 -0.6875 2.46875 -0.6875 C 2.25 -0.769531 2.070312 -0.832031 1.9375 -0.875 C 1.84375 -0.90625 1.71875 -0.929688 1.5625 -0.953125 L 1.34375 -0.28125 C 1.3125 -0.1875 1.296875 -0.117188 1.296875 -0.078125 C 1.304688 -0.046875 1.328125 -0.0195312 1.359375 0 C 1.398438 0.03125 1.46875 0.0625 1.5625 0.09375 C 1.769531 0.15625 1.925781 0.1875 2.03125 0.1875 C 2.132812 0.195312 2.210938 0.171875 2.265625 0.109375 C 2.328125 0.0546875 2.394531 -0.046875 2.46875 -0.203125 L 2.875 -0.109375 Z M 2.890625 -0.0625 "/></g></g></g><g fill="#231f20" fill-opacity="1"><g transform="translate(29.760287, 7.503344)"><g><path d="M 1.3125 0.9375 C 1.050781 0.769531 0.863281 0.570312 0.75 0.34375 C 0.644531 0.125 0.601562 -0.113281 0.625 -0.375 C 0.65625 -0.632812 0.757812 -0.894531 0.9375 -1.15625 C 1.132812 -1.445312 1.363281 -1.660156 1.625 -1.796875 C 1.894531 -1.941406 2.171875 -1.992188 2.453125 -1.953125 C 2.742188 -1.921875 3.039062 -1.804688 3.34375 -1.609375 C 3.445312 -1.535156 3.554688 -1.453125 3.671875 -1.359375 C 3.785156 -1.273438 3.875 -1.191406 3.9375 -1.109375 C 4.007812 -1.035156 4.0625 -0.988281 4.09375 -0.96875 L 4.078125 -0.890625 C 4.066406 -0.890625 4.03125 -0.859375 3.96875 -0.796875 C 3.90625 -0.734375 3.832031 -0.648438 3.75 -0.546875 C 3.664062 -0.453125 3.578125 -0.34375 3.484375 -0.21875 L 3.078125 -0.453125 C 3.078125 -0.460938 3.09375 -0.488281 3.125 -0.53125 C 3.164062 -0.570312 3.203125 -0.617188 3.234375 -0.671875 C 3.316406 -0.796875 3.335938 -0.898438 3.296875 -0.984375 C 3.265625 -1.078125 3.164062 -1.179688 3 -1.296875 C 2.75 -1.460938 2.515625 -1.507812 2.296875 -1.4375 C 2.078125 -1.375 1.863281 -1.191406 1.65625 -0.890625 C 1.425781 -0.554688 1.3125 -0.257812 1.3125 0 C 1.320312 0.269531 1.429688 0.476562 1.640625 0.625 C 1.722656 0.675781 1.796875 0.710938 1.859375 0.734375 C 1.929688 0.765625 1.988281 0.78125 2.03125 0.78125 C 2.070312 0.789062 2.097656 0.800781 2.109375 0.8125 L 2.375 0.421875 C 2.425781 0.335938 2.445312 0.273438 2.4375 0.234375 C 2.4375 0.191406 2.394531 0.144531 2.3125 0.09375 L 2.109375 -0.046875 L 2.125 -0.09375 L 2.34375 -0.375 C 2.414062 -0.320312 2.472656 -0.28125 2.515625 -0.25 C 2.671875 -0.132812 2.804688 -0.0390625 2.921875 0.03125 C 3.003906 0.0820312 3.085938 0.132812 3.171875 0.1875 C 3.253906 0.238281 3.304688 0.269531 3.328125 0.28125 L 3.265625 0.46875 C 3.191406 0.457031 3.128906 0.46875 3.078125 0.5 C 3.023438 0.53125 2.96875 0.582031 2.90625 0.65625 C 2.84375 0.738281 2.753906 0.863281 2.640625 1.03125 C 2.535156 1.195312 2.46875 1.316406 2.4375 1.390625 L 2.359375 1.421875 C 2.359375 1.421875 2.300781 1.398438 2.1875 1.359375 C 2.082031 1.328125 1.945312 1.273438 1.78125 1.203125 C 1.625 1.140625 1.46875 1.050781 1.3125 0.9375 Z M 1.3125 0.9375 "/></g></g></g><g fill="#231f20" fill-opacity="1"><g transform="translate(33.425263, 10.21197)"><g><path d="M 1.03125 1.25 L 1.28125 1.09375 C 1.351562 1.175781 1.410156 1.226562 1.453125 1.25 C 1.492188 1.28125 1.53125 1.296875 1.5625 1.296875 C 1.59375 1.296875 1.625 1.285156 1.65625 1.265625 C 1.6875 1.234375 1.722656 1.191406 1.765625 1.140625 L 1.984375 0.828125 C 1.890625 0.679688 1.800781 0.5625 1.71875 0.46875 C 1.675781 0.414062 1.585938 0.320312 1.453125 0.1875 L 1.375 0.125 L 1.015625 0.265625 C 0.953125 0.304688 0.910156 0.332031 0.890625 0.34375 C 0.847656 0.382812 0.820312 0.425781 0.8125 0.46875 C 0.8125 0.507812 0.84375 0.566406 0.90625 0.640625 L 1.03125 0.796875 L 1.03125 0.828125 L 0.765625 0.984375 C 0.734375 0.953125 0.675781 0.875 0.59375 0.75 C 0.507812 0.625 0.425781 0.515625 0.34375 0.421875 C 0.25 0.304688 0.164062 0.207031 0.09375 0.125 C 0.0195312 0.0507812 -0.0234375 0.00390625 -0.046875 -0.015625 L 0.21875 -0.203125 C 0.28125 -0.148438 0.34375 -0.117188 0.40625 -0.109375 C 0.476562 -0.109375 0.578125 -0.128906 0.703125 -0.171875 L 3.15625 -1.0625 L 3.703125 -0.53125 L 3.71875 -0.484375 C 3.613281 -0.328125 3.382812 -0.0078125 3.03125 0.46875 C 2.6875 0.957031 2.414062 1.363281 2.21875 1.6875 C 2.144531 1.78125 2.101562 1.863281 2.09375 1.9375 C 2.09375 2.007812 2.128906 2.097656 2.203125 2.203125 L 2.171875 2.234375 L 1.9375 2.390625 C 1.90625 2.347656 1.851562 2.28125 1.78125 2.1875 C 1.71875 2.09375 1.644531 2 1.5625 1.90625 C 1.457031 1.78125 1.347656 1.65625 1.234375 1.53125 C 1.117188 1.40625 1.046875 1.332031 1.015625 1.3125 Z M 2.015625 0.234375 C 2.035156 0.253906 2.113281 0.34375 2.25 0.5 L 2.90625 -0.421875 L 2.859375 -0.46875 L 1.78125 -0.046875 Z M 2.015625 0.234375 "/></g></g></g><g fill="#231f20" fill-opacity="1"><g transform="translate(36.070565, 13.775934)"><g><path d="M 0.34375 0.125 C 0.414062 0.226562 0.488281 0.289062 0.5625 0.3125 C 0.632812 0.332031 0.738281 0.3125 0.875 0.25 L 2.59375 -0.5 C 2.6875 -0.539062 2.742188 -0.578125 2.765625 -0.609375 C 2.785156 -0.648438 2.78125 -0.703125 2.75 -0.765625 L 2.6875 -0.90625 L 2.71875 -0.953125 L 3 -1.015625 L 3.265625 -0.421875 C 3.296875 -0.335938 3.347656 -0.21875 3.421875 -0.0625 C 3.503906 0.0820312 3.5625 0.1875 3.59375 0.25 L 3.265625 0.359375 C 3.210938 0.253906 3.160156 0.179688 3.109375 0.140625 C 3.066406 0.109375 3.023438 0.09375 2.984375 0.09375 C 2.941406 0.09375 2.878906 0.113281 2.796875 0.15625 C 2.316406 0.3125 1.75 0.535156 1.09375 0.828125 C 1.019531 0.859375 0.96875 0.890625 0.9375 0.921875 C 0.90625 0.953125 0.890625 0.988281 0.890625 1.03125 C 0.898438 1.082031 0.921875 1.148438 0.953125 1.234375 C 1.015625 1.378906 1.078125 1.484375 1.140625 1.546875 C 1.210938 1.609375 1.304688 1.632812 1.421875 1.625 C 1.535156 1.613281 1.695312 1.578125 1.90625 1.515625 L 2.09375 1.875 L 2.0625 1.921875 C 1.988281 1.941406 1.847656 1.976562 1.640625 2.03125 C 1.441406 2.09375 1.234375 2.171875 1.015625 2.265625 L 0.921875 2.21875 C 0.898438 2.144531 0.832031 1.96875 0.71875 1.6875 C 0.613281 1.40625 0.515625 1.160156 0.421875 0.953125 C 0.347656 0.785156 0.269531 0.628906 0.1875 0.484375 C 0.101562 0.335938 0.0546875 0.25 0.046875 0.21875 Z M 0.34375 0.125 "/></g></g></g><g fill="#231f20" fill-opacity="1"><g transform="translate(37.481483, 17.589806)"><g/></g></g><g fill="#231f20" fill-opacity="1"><g transform="translate(37.853675, 19.967589)"><g/></g></g><g fill="#231f20" fill-opacity="1"><g transform="translate(37.869618, 22.338711)"><g><path d="M 0.4375 0.890625 C 0.457031 0.710938 0.53125 0.578125 0.65625 0.484375 C 0.78125 0.398438 0.921875 0.367188 1.078125 0.390625 C 1.253906 0.421875 1.390625 0.5 1.484375 0.625 C 1.585938 0.75 1.628906 0.898438 1.609375 1.078125 C 1.585938 1.242188 1.515625 1.367188 1.390625 1.453125 C 1.273438 1.546875 1.132812 1.582031 0.96875 1.5625 C 0.789062 1.53125 0.648438 1.453125 0.546875 1.328125 C 0.453125 1.210938 0.414062 1.066406 0.4375 0.890625 Z M 0.4375 0.890625 "/></g></g></g><g fill="#231f20" fill-opacity="1"><g transform="translate(13.489915, 24.480171)"><g><path d="M 3.09375 -6.09375 L 3.09375 -1.71875 C 3.09375 -1.125 2.925781 -0.671875 2.59375 -0.359375 C 2.269531 -0.046875 1.804688 0.109375 1.203125 0.109375 C 1.035156 0.109375 0.875 0.0859375 0.71875 0.046875 C 0.5625 0.015625 0.425781 -0.0234375 0.3125 -0.078125 C 0.207031 -0.140625 0.109375 -0.203125 0.015625 -0.265625 C -0.0664062 -0.328125 -0.125 -0.375 -0.15625 -0.40625 L -0.234375 -0.46875 L 0.21875 -1.640625 C 0.507812 -1.359375 0.769531 -1.21875 1 -1.21875 C 1.21875 -1.21875 1.390625 -1.285156 1.515625 -1.421875 C 1.640625 -1.566406 1.703125 -1.785156 1.703125 -2.078125 L 1.703125 -6.09375 Z M 3.09375 -6.09375 "/></g></g></g><g fill="#231f20" fill-opacity="1"><g transform="translate(19.663679, 24.480171)"><g><path d="M 1.828125 -6.09375 L 1.828125 -1.21875 L 3.9375 -1.21875 L 3.9375 0 L 0.4375 0 L 0.4375 -6.09375 Z M 1.828125 -6.09375 "/></g></g></g><g fill="#231f20" fill-opacity="1"><g transform="translate(26.546329, 24.480171)"><g><path d="M 2.6875 -6.203125 C 3.019531 -6.203125 3.34375 -6.15625 3.65625 -6.0625 C 3.96875 -5.96875 4.203125 -5.875 4.359375 -5.78125 L 4.578125 -5.625 L 4.015625 -4.515625 C 3.972656 -4.546875 3.910156 -4.582031 3.828125 -4.625 C 3.753906 -4.675781 3.609375 -4.738281 3.390625 -4.8125 C 3.171875 -4.894531 2.96875 -4.9375 2.78125 -4.9375 C 2.550781 -4.9375 2.375 -4.890625 2.25 -4.796875 C 2.125 -4.703125 2.0625 -4.566406 2.0625 -4.390625 C 2.0625 -4.304688 2.085938 -4.226562 2.140625 -4.15625 C 2.203125 -4.09375 2.304688 -4.019531 2.453125 -3.9375 C 2.597656 -3.851562 2.722656 -3.785156 2.828125 -3.734375 C 2.941406 -3.691406 3.109375 -3.617188 3.328125 -3.515625 C 3.722656 -3.347656 4.0625 -3.117188 4.34375 -2.828125 C 4.625 -2.546875 4.765625 -2.222656 4.765625 -1.859375 C 4.765625 -1.503906 4.695312 -1.195312 4.5625 -0.9375 C 4.4375 -0.675781 4.265625 -0.472656 4.046875 -0.328125 C 3.828125 -0.179688 3.582031 -0.0703125 3.3125 0 C 3.050781 0.0703125 2.769531 0.109375 2.46875 0.109375 C 2.195312 0.109375 1.929688 0.0820312 1.671875 0.03125 C 1.421875 -0.0195312 1.207031 -0.0859375 1.03125 -0.171875 C 0.863281 -0.253906 0.707031 -0.332031 0.5625 -0.40625 C 0.425781 -0.488281 0.328125 -0.554688 0.265625 -0.609375 L 0.171875 -0.6875 L 0.859375 -1.859375 C 0.921875 -1.804688 1.003906 -1.742188 1.109375 -1.671875 C 1.210938 -1.597656 1.394531 -1.492188 1.65625 -1.359375 C 1.914062 -1.234375 2.148438 -1.171875 2.359375 -1.171875 C 2.941406 -1.171875 3.234375 -1.375 3.234375 -1.78125 C 3.234375 -1.863281 3.210938 -1.9375 3.171875 -2 C 3.128906 -2.070312 3.054688 -2.144531 2.953125 -2.21875 C 2.847656 -2.289062 2.753906 -2.347656 2.671875 -2.390625 C 2.585938 -2.429688 2.453125 -2.492188 2.265625 -2.578125 C 2.085938 -2.671875 1.953125 -2.738281 1.859375 -2.78125 C 1.492188 -2.957031 1.207031 -3.179688 1 -3.453125 C 0.800781 -3.734375 0.703125 -4.03125 0.703125 -4.34375 C 0.703125 -4.894531 0.90625 -5.34375 1.3125 -5.6875 C 1.71875 -6.03125 2.175781 -6.203125 2.6875 -6.203125 Z M 2.6875 -6.203125 "/></g></g></g><g fill="#231f20" fill-opacity="1"><g transform="translate(6.469164, 33.721331)"><g><path d="M 0.796875 0.671875 C 0.660156 0.566406 0.550781 0.457031 0.46875 0.34375 C 0.394531 0.238281 0.347656 0.132812 0.328125 0.03125 C 0.304688 -0.0703125 0.304688 -0.164062 0.328125 -0.25 L 0.703125 -0.328125 L 0.75 -0.296875 C 0.726562 -0.179688 0.738281 -0.0664062 0.78125 0.046875 C 0.832031 0.160156 0.914062 0.265625 1.03125 0.359375 C 1.125 0.441406 1.210938 0.476562 1.296875 0.46875 C 1.378906 0.46875 1.445312 0.429688 1.5 0.359375 C 1.53125 0.316406 1.550781 0.273438 1.5625 0.234375 C 1.570312 0.191406 1.566406 0.144531 1.546875 0.09375 C 1.523438 0.0507812 1.488281 -0.00390625 1.4375 -0.078125 L 1.25 -0.328125 C 1.113281 -0.484375 1.039062 -0.632812 1.03125 -0.78125 C 1.019531 -0.9375 1.066406 -1.085938 1.171875 -1.234375 C 1.253906 -1.335938 1.351562 -1.40625 1.46875 -1.4375 C 1.582031 -1.476562 1.707031 -1.476562 1.84375 -1.4375 C 1.976562 -1.40625 2.113281 -1.332031 2.25 -1.21875 C 2.382812 -1.113281 2.488281 -1 2.5625 -0.875 C 2.632812 -0.757812 2.671875 -0.632812 2.671875 -0.5 L 2.3125 -0.40625 L 2.28125 -0.4375 C 2.269531 -0.519531 2.238281 -0.601562 2.1875 -0.6875 C 2.144531 -0.78125 2.082031 -0.859375 2 -0.921875 C 1.90625 -1.003906 1.816406 -1.046875 1.734375 -1.046875 C 1.660156 -1.054688 1.597656 -1.023438 1.546875 -0.953125 C 1.492188 -0.898438 1.472656 -0.84375 1.484375 -0.78125 C 1.492188 -0.71875 1.535156 -0.640625 1.609375 -0.546875 L 1.8125 -0.3125 C 1.957031 -0.132812 2.035156 0.03125 2.046875 0.1875 C 2.054688 0.34375 2.003906 0.492188 1.890625 0.640625 C 1.804688 0.753906 1.707031 0.832031 1.59375 0.875 C 1.476562 0.914062 1.347656 0.921875 1.203125 0.890625 C 1.066406 0.859375 0.929688 0.785156 0.796875 0.671875 Z M 0.796875 0.671875 "/></g></g></g><g fill="#231f20" fill-opacity="1"><g transform="translate(9.701116, 36.094431)"><g><path d="M 1.09375 0.640625 C 0.914062 0.535156 0.769531 0.40625 0.65625 0.25 C 0.550781 0.09375 0.503906 -0.0820312 0.515625 -0.28125 C 0.523438 -0.476562 0.59375 -0.691406 0.71875 -0.921875 C 0.851562 -1.160156 1 -1.335938 1.15625 -1.453125 C 1.3125 -1.566406 1.484375 -1.625 1.671875 -1.625 C 1.867188 -1.625 2.054688 -1.570312 2.234375 -1.46875 C 2.421875 -1.375 2.5625 -1.25 2.65625 -1.09375 C 2.757812 -0.9375 2.8125 -0.753906 2.8125 -0.546875 C 2.8125 -0.347656 2.742188 -0.128906 2.609375 0.109375 C 2.484375 0.335938 2.335938 0.507812 2.171875 0.625 C 2.003906 0.738281 1.828125 0.789062 1.640625 0.78125 C 1.460938 0.78125 1.28125 0.734375 1.09375 0.640625 Z M 1.28125 0.296875 C 1.457031 0.390625 1.617188 0.398438 1.765625 0.328125 C 1.921875 0.265625 2.0625 0.113281 2.1875 -0.125 C 2.320312 -0.375 2.375 -0.578125 2.34375 -0.734375 C 2.320312 -0.890625 2.222656 -1.015625 2.046875 -1.109375 C 1.867188 -1.203125 1.703125 -1.21875 1.546875 -1.15625 C 1.398438 -1.101562 1.257812 -0.953125 1.125 -0.703125 C 1 -0.460938 0.945312 -0.257812 0.96875 -0.09375 C 1 0.0703125 1.101562 0.203125 1.28125 0.296875 Z M 1.28125 0.296875 "/></g></g></g><g fill="#231f20" fill-opacity="1"><g transform="translate(13.781782, 38.080962)"><g><path d="M 1.453125 -1.9375 L 0.84375 -0.125 L 1.828125 0.203125 L 1.703125 0.578125 L 0.28125 0.09375 L 1.015625 -2.09375 Z M 1.453125 -1.9375 "/></g></g></g><g fill="#231f20" fill-opacity="1"><g transform="translate(17.512176, 39.185924)"><g><path d="M 1.21875 0.21875 C 0.894531 0.164062 0.664062 0.0546875 0.53125 -0.109375 C 0.40625 -0.285156 0.367188 -0.519531 0.421875 -0.8125 L 0.640625 -2.234375 L 1.078125 -2.171875 L 0.859375 -0.75 C 0.828125 -0.59375 0.847656 -0.460938 0.921875 -0.359375 C 0.992188 -0.253906 1.113281 -0.191406 1.28125 -0.171875 C 1.601562 -0.117188 1.789062 -0.257812 1.84375 -0.59375 L 2.0625 -2.015625 L 2.5 -1.9375 L 2.28125 -0.515625 C 2.226562 -0.222656 2.113281 -0.015625 1.9375 0.109375 C 1.769531 0.234375 1.53125 0.269531 1.21875 0.21875 Z M 1.21875 0.21875 "/></g></g></g><g fill="#231f20" fill-opacity="1"><g transform="translate(21.954213, 39.684781)"><g><path d="M 1.828125 -2.34375 L 1.828125 -1.96875 L 1.15625 -1.953125 L 1.1875 -0.015625 L 0.734375 -0.015625 L 0.703125 -1.953125 L 0.03125 -1.9375 L 0.03125 -2.3125 Z M 1.828125 -2.34375 "/></g></g></g><g fill="#231f20" fill-opacity="1"><g transform="translate(25.844783, 39.45416)"><g><path d="M 0.75 -0.125 L 0.296875 -0.046875 L -0.0625 -2.328125 L 0.390625 -2.40625 Z M 0.75 -0.125 "/></g></g></g><g fill="#231f20" fill-opacity="1"><g transform="translate(28.847451, 38.88064)"><g><path d="M 1.21875 -0.359375 C 1.019531 -0.296875 0.828125 -0.28125 0.640625 -0.3125 C 0.453125 -0.34375 0.285156 -0.429688 0.140625 -0.578125 C 0.00390625 -0.722656 -0.101562 -0.914062 -0.1875 -1.15625 C -0.269531 -1.414062 -0.289062 -1.644531 -0.25 -1.84375 C -0.21875 -2.039062 -0.132812 -2.207031 0 -2.34375 C 0.125 -2.476562 0.285156 -2.578125 0.484375 -2.640625 C 0.679688 -2.703125 0.867188 -2.710938 1.046875 -2.671875 C 1.234375 -2.640625 1.394531 -2.550781 1.53125 -2.40625 C 1.675781 -2.269531 1.789062 -2.070312 1.875 -1.8125 C 1.957031 -1.570312 1.984375 -1.347656 1.953125 -1.140625 C 1.921875 -0.929688 1.835938 -0.765625 1.703125 -0.640625 C 1.578125 -0.515625 1.414062 -0.421875 1.21875 -0.359375 Z M 1.09375 -0.734375 C 1.28125 -0.796875 1.398438 -0.90625 1.453125 -1.0625 C 1.515625 -1.21875 1.503906 -1.421875 1.421875 -1.671875 C 1.335938 -1.941406 1.226562 -2.117188 1.09375 -2.203125 C 0.957031 -2.296875 0.796875 -2.3125 0.609375 -2.25 C 0.421875 -2.1875 0.296875 -2.078125 0.234375 -1.921875 C 0.171875 -1.773438 0.179688 -1.566406 0.265625 -1.296875 C 0.347656 -1.046875 0.457031 -0.875 0.59375 -0.78125 C 0.738281 -0.6875 0.90625 -0.671875 1.09375 -0.734375 Z M 1.09375 -0.734375 "/></g></g></g><g fill="#231f20" fill-opacity="1"><g transform="translate(33.125077, 37.307809)"><g><path d="M 0.65625 -0.359375 L 0.265625 -0.140625 L -0.84375 -2.171875 L -0.375 -2.421875 L 1.15625 -1.578125 L 1.1875 -1.59375 L 0.46875 -2.890625 L 0.859375 -3.09375 L 1.96875 -1.0625 L 1.546875 -0.84375 L -0.078125 -1.78125 L -0.109375 -1.765625 Z M 0.65625 -0.359375 "/></g></g></g><g fill="#231f20" fill-opacity="1"><g transform="translate(37.032837, 34.961676)"><g><path d="M 0.828125 -0.609375 C 0.691406 -0.503906 0.5625 -0.425781 0.4375 -0.375 C 0.320312 -0.332031 0.210938 -0.3125 0.109375 -0.3125 C 0.00390625 -0.3125 -0.0859375 -0.332031 -0.171875 -0.375 L -0.171875 -0.765625 L -0.125 -0.796875 C -0.0195312 -0.742188 0.09375 -0.726562 0.21875 -0.75 C 0.351562 -0.769531 0.476562 -0.828125 0.59375 -0.921875 C 0.6875 -1.003906 0.738281 -1.082031 0.75 -1.15625 C 0.757812 -1.238281 0.738281 -1.316406 0.6875 -1.390625 C 0.65625 -1.429688 0.617188 -1.457031 0.578125 -1.46875 C 0.535156 -1.476562 0.488281 -1.476562 0.4375 -1.46875 C 0.382812 -1.46875 0.320312 -1.453125 0.25 -1.421875 L -0.03125 -1.296875 C -0.226562 -1.203125 -0.398438 -1.160156 -0.546875 -1.171875 C -0.691406 -1.191406 -0.816406 -1.273438 -0.921875 -1.421875 C -1.003906 -1.523438 -1.050781 -1.632812 -1.0625 -1.75 C -1.070312 -1.875 -1.046875 -1.992188 -0.984375 -2.109375 C -0.921875 -2.234375 -0.820312 -2.351562 -0.6875 -2.46875 C -0.550781 -2.570312 -0.414062 -2.644531 -0.28125 -2.6875 C -0.144531 -2.738281 -0.015625 -2.75 0.109375 -2.71875 L 0.125 -2.34375 L 0.09375 -2.3125 C 0 -2.332031 -0.0859375 -2.328125 -0.171875 -2.296875 C -0.265625 -2.273438 -0.351562 -2.234375 -0.4375 -2.171875 C -0.53125 -2.085938 -0.585938 -2.003906 -0.609375 -1.921875 C -0.640625 -1.847656 -0.628906 -1.773438 -0.578125 -1.703125 C -0.523438 -1.648438 -0.46875 -1.625 -0.40625 -1.625 C -0.34375 -1.625 -0.265625 -1.648438 -0.171875 -1.703125 L 0.09375 -1.84375 C 0.300781 -1.9375 0.484375 -1.972656 0.640625 -1.953125 C 0.796875 -1.929688 0.929688 -1.847656 1.046875 -1.703125 C 1.128906 -1.585938 1.179688 -1.46875 1.203125 -1.34375 C 1.222656 -1.21875 1.195312 -1.09375 1.125 -0.96875 C 1.0625 -0.84375 0.960938 -0.722656 0.828125 -0.609375 Z M 0.828125 -0.609375 "/></g></g></g></svg>