<svg width="14" height="12" viewBox="0 0 14 12" fill="none" xmlns="http://www.w3.org/2000/svg">
<path fill-rule="evenodd" clip-rule="evenodd" d="M4.90229 11.6354L1.05181 7.78499C0.947463 7.68057 0.869196 7.56583 0.817023 7.44059C0.76485 7.31535 0.73877 7.18497 0.73877 7.04931C0.73877 6.91364 0.76485 6.78311 0.817023 6.65803C0.86921 6.53279 0.947463 6.41796 1.05181 6.31363L4.65186 2.72924L2.99272 1.07015L3.96317 0.0527344L10.2241 6.31364C10.3285 6.41797 10.4041 6.5328 10.4511 6.65804C10.498 6.78312 10.5215 6.91365 10.5215 7.04932C10.5215 7.18499 10.498 7.31535 10.4511 7.4406C10.4041 7.56584 10.3285 7.68059 10.2241 7.785L6.37361 11.6354C6.26926 11.7398 6.15449 11.818 6.02926 11.8701C5.90405 11.9224 5.7736 11.9486 5.63794 11.9486C5.50229 11.9486 5.37186 11.9224 5.24664 11.8701C5.12142 11.8181 5.00664 11.7398 4.90228 11.6354L4.90229 11.6354ZM5.63786 3.71549L2.28825 7.06519H8.98748L5.63786 3.71549ZM11.8834 11.9487C11.5077 11.9487 11.1894 11.8155 10.9286 11.5495C10.6677 11.2834 10.5373 10.9574 10.5373 10.5712C10.5373 10.2896 10.6077 10.0234 10.7486 9.77303C10.8894 9.52246 11.0486 9.27734 11.226 9.03719L11.8834 8.19206L12.5721 9.03719C12.7391 9.27734 12.8956 9.52246 13.0417 9.77303C13.1878 10.0234 13.2608 10.2896 13.2608 10.5712C13.2608 10.9574 13.1252 11.2834 12.8538 11.5495C12.5825 11.8155 12.2591 11.9487 11.8834 11.9487H11.8834Z" fill="white"/>
</svg>
