<svg width="16" height="16" viewBox="0 0 16 16" fill="none" xmlns="http://www.w3.org/2000/svg">
<g id="Copy_Icon">
<g id="Copy_Icon_2">
<mask id="mask0_3133_8309" style="mask-type:luminance" maskUnits="userSpaceOnUse" x="0" y="0" width="17" height="16">
<path id="Rectangle 47765" fill-rule="evenodd" clip-rule="evenodd" d="M0.00195312 0H16.002V16H0.00195312V0Z" fill="white"/>
</mask>
<g mask="url(#mask0_3133_8309)">
<g id="Group">
<g id="Layer_1">
<g id="Group_2">
<g id="Group_3">
<path id="Vector" d="M12.1231 14.2454H5.59392C4.42523 14.2454 3.47119 13.2913 3.47119 12.1226V5.59344C3.47119 4.42474 4.42523 3.4707 5.59392 3.4707H12.1291C13.2978 3.4707 14.2518 4.42474 14.2518 5.59344V12.1286C14.2518 13.2973 13.2978 14.2513 12.1291 14.2513L12.1231 14.2454ZM5.59392 4.24586C4.84858 4.24586 4.24635 4.84809 4.24635 5.59344V12.1286C4.24635 12.8739 4.84858 13.4762 5.59392 13.4762H12.1291C12.8744 13.4762 13.4767 12.8739 13.4767 12.1286V5.59344C13.4767 4.84809 12.8744 4.24586 12.1291 4.24586H5.59392Z" fill="#1F2124"/>
<path id="Vector_2" d="M2.14637 10.7973C1.93171 10.7973 1.75879 10.6244 1.75879 10.4097V4.83458C1.75879 3.1352 3.13618 1.75781 4.83556 1.75781H10.4167C10.6313 1.75781 10.8043 1.93073 10.8043 2.14539C10.8043 2.36005 10.6313 2.53297 10.4167 2.53297H4.83556C3.5655 2.53297 2.53394 3.56452 2.53394 4.83458V10.4157C2.53394 10.6304 2.36103 10.8033 2.14637 10.8033V10.7973Z" fill="#1F2124"/>
</g>
</g>
</g>
</g>
</g>
</g>
</g>
</svg>
