<svg width="16" height="16" viewBox="0 0 16 16" fill="none" xmlns="http://www.w3.org/2000/svg">
<g id="Recycle_Bin_Icon">
<g id="Group">
<g id="Layer_1">
<path id="Vector" d="M12.4897 4.44064H3.08046C2.63326 4.44064 2.26953 4.07691 2.26953 3.62971V3.2302C2.26953 2.783 2.63326 2.41927 3.08046 2.41927H5.53711C6.89065 1.41753 8.88817 1.41753 10.2417 2.41927H12.4837C12.9309 2.41927 13.2946 2.783 13.2946 3.2302V3.62971C13.2946 4.07691 12.9309 4.44064 12.4837 4.44064H12.4897ZM3.08046 3.19443C3.08046 3.19443 3.04469 3.21232 3.04469 3.2302V3.62971L12.4837 3.66548L12.5195 3.2302L9.97338 3.19443L9.86605 3.11095C8.73313 2.20461 7.04568 2.20461 5.9068 3.11095L5.79947 3.19443H3.08046Z" fill="#1F2124"/>
<g id="Group_2">
<path id="Vector_2" d="M9.81328 14.4407H5.80632C4.69725 14.4407 3.76707 13.5761 3.68955 12.467L3.17676 5.18652H12.4428L11.93 12.467C11.8525 13.5761 10.9223 14.4407 9.81328 14.4407ZM4.01154 5.96168L4.46471 12.4134C4.51241 13.117 5.10272 13.6655 5.80632 13.6655H9.81328C10.5169 13.6655 11.1072 13.117 11.1549 12.4134L11.6081 5.96168H4.01154Z" fill="#1F2124"/>
</g>
</g>
</g>
</g>
</svg>
