<?xml version="1.0" encoding="utf-8" ?>
<svg xmlns="http://www.w3.org/2000/svg" xmlns:xlink="http://www.w3.org/1999/xlink" width="667" height="767">
	<defs>
		<linearGradient id="gradient_0" gradientUnits="userSpaceOnUse" x1="542.8056" y1="384.62036" x2="160.71054" y2="374.93216">
			<stop offset="0" stop-color="#01A4FF"/>
			<stop offset="1" stop-color="#00E9FE"/>
		</linearGradient>
	</defs>
	<path fill="url(#gradient_0)" d="M350.054 188.176Q350.622 188.152 351.191 188.143Q353.505 188.128 355.819 188.169Q358.133 188.211 360.445 188.308Q362.757 188.405 365.066 188.558Q367.376 188.711 369.68 188.92Q371.985 189.129 374.284 189.394Q376.583 189.659 378.875 189.979Q381.167 190.3 383.451 190.676Q385.734 191.052 388.008 191.483Q390.282 191.913 392.544 192.399Q394.807 192.885 397.057 193.426Q399.307 193.966 401.544 194.561Q403.78 195.156 406.002 195.805Q408.223 196.454 410.428 197.157Q412.633 197.859 414.82 198.615Q417.008 199.37 419.176 200.179Q421.345 200.987 423.493 201.848Q425.641 202.709 427.768 203.621Q429.895 204.534 431.999 205.497Q434.103 206.461 436.183 207.475Q438.263 208.49 440.318 209.554Q442.373 210.619 444.401 211.732Q446.43 212.846 448.431 214.009Q450.432 215.172 452.404 216.383Q454.376 217.593 456.318 218.852Q458.261 220.11 460.172 221.415Q462.083 222.719 463.962 224.07Q465.841 225.421 467.687 226.817Q469.533 228.213 471.345 229.653Q473.156 231.093 474.932 232.577Q476.708 234.06 478.448 235.586Q480.188 237.113 481.89 238.681Q483.592 240.248 485.256 241.857Q486.959 243.5 488.622 245.186Q490.284 246.871 491.904 248.596Q493.524 250.322 495.101 252.087Q496.678 253.852 498.211 255.655Q499.744 257.459 501.232 259.299Q502.72 261.14 504.162 263.017Q505.604 264.894 507 266.806Q508.395 268.718 509.743 270.664Q511.091 272.61 512.39 274.588Q513.689 276.567 514.939 278.577Q516.189 280.587 517.389 282.627Q518.589 284.667 519.738 286.737Q520.887 288.806 521.985 290.903Q523.083 293 524.129 295.123Q525.174 297.247 526.167 299.395Q527.16 301.544 528.1 303.717Q529.039 305.889 529.925 308.084Q530.81 310.279 531.642 312.495Q532.473 314.712 533.249 316.948Q534.025 319.184 534.746 321.438Q535.467 323.693 536.132 325.965Q536.796 328.236 537.405 330.524Q538.014 332.811 538.565 335.113Q539.117 337.414 539.612 339.729Q540.107 342.044 540.545 344.37Q540.982 346.696 541.362 349.032Q541.742 351.369 542.065 353.714Q542.387 356.059 542.651 358.411Q542.915 360.763 543.121 363.121Q543.328 365.479 543.475 367.841Q543.623 370.204 543.713 372.569Q543.802 374.934 543.833 377.301Q543.869 379.625 543.848 381.949Q543.828 384.273 543.751 386.596Q543.674 388.919 543.54 391.24Q543.407 393.56 543.217 395.877Q543.026 398.193 542.78 400.505Q542.534 402.816 542.231 405.12Q541.929 407.425 541.57 409.721Q541.212 412.018 540.798 414.305Q540.383 416.592 539.914 418.868Q539.444 421.145 538.919 423.409Q538.394 425.673 537.814 427.924Q537.234 430.175 536.599 432.411Q535.965 434.647 535.276 436.867Q534.587 439.087 533.845 441.289Q533.102 443.491 532.306 445.675Q531.51 447.859 530.661 450.023Q529.812 452.186 528.911 454.329Q528.01 456.471 527.057 458.591Q526.103 460.711 525.099 462.807Q524.094 464.903 523.039 466.974Q521.984 469.045 520.879 471.09Q519.774 473.135 518.619 475.152Q517.464 477.169 516.261 479.158Q515.058 481.146 513.806 483.105Q512.555 485.063 511.256 486.991Q509.957 488.919 508.612 490.814Q507.267 492.709 505.876 494.572Q504.485 496.434 503.049 498.261Q501.613 500.089 500.133 501.881Q498.654 503.674 497.13 505.43Q495.607 507.185 494.042 508.903Q492.477 510.621 490.87 512.301C454.111 550.235 406.623 570.869 353.817 571.65L353.442 571.663C305.383 573.045 256.339 553.145 221.466 520.394Q219.729 518.787 218.032 517.138Q216.335 515.489 214.679 513.799Q213.024 512.108 211.411 510.376Q209.798 508.645 208.228 506.874Q206.658 505.104 205.133 503.294Q203.608 501.485 202.128 499.639Q200.648 497.792 199.215 495.91Q197.781 494.027 196.395 492.11Q195.008 490.192 193.67 488.241Q192.332 486.289 191.042 484.305Q189.752 482.321 188.512 480.306Q187.273 478.29 186.083 476.245Q184.893 474.199 183.755 472.125Q182.617 470.05 181.53 467.948Q180.443 465.846 179.409 463.718Q178.375 461.59 177.394 459.436Q176.413 457.283 175.486 455.106Q174.559 452.929 173.686 450.729Q172.813 448.53 171.995 446.31Q171.176 444.089 170.414 441.849Q169.651 439.609 168.944 437.351Q168.237 435.093 167.586 432.818Q166.935 430.543 166.341 428.252Q165.747 425.962 165.21 423.657Q164.673 421.353 164.194 419.035Q163.714 416.718 163.292 414.39Q162.87 412.062 162.506 409.723Q162.141 407.385 161.835 405.039Q161.529 402.693 161.282 400.339Q161.034 397.986 160.845 395.627Q160.655 393.269 160.525 390.906Q160.394 388.543 160.322 386.178Q160.244 383.818 160.225 381.457Q160.205 379.095 160.244 376.734Q160.282 374.373 160.379 372.014Q160.475 369.655 160.63 367.298Q160.785 364.942 160.997 362.59Q161.21 360.239 161.481 357.893Q161.751 355.547 162.079 353.209Q162.408 350.87 162.793 348.541Q163.179 346.211 163.622 343.892Q164.065 341.572 164.564 339.264Q165.064 336.957 165.621 334.662Q166.177 332.367 166.79 330.086Q167.403 327.806 168.072 325.541Q168.741 323.277 169.465 321.029Q170.19 318.782 170.969 316.553Q171.749 314.324 172.583 312.115Q173.417 309.906 174.305 307.718Q175.193 305.53 176.135 303.365Q177.077 301.199 178.072 299.058Q179.067 296.916 180.114 294.8Q181.162 292.683 182.261 290.594Q183.36 288.504 184.51 286.441Q185.66 284.379 186.861 282.346Q188.062 280.313 189.312 278.309Q190.562 276.306 191.862 274.335Q193.161 272.363 194.508 270.424Q195.856 268.485 197.251 266.579Q198.645 264.674 200.087 262.803Q201.528 260.933 203.015 259.098Q204.502 257.264 206.033 255.467Q207.565 253.67 209.14 251.911Q210.716 250.152 212.334 248.432Q213.677 247.005 215.049 245.606Q216.421 244.207 217.822 242.836Q219.222 241.465 220.65 240.123Q222.078 238.78 223.533 237.468Q224.988 236.155 226.47 234.872Q227.951 233.589 229.458 232.337Q230.966 231.085 232.498 229.863Q234.031 228.642 235.588 227.452Q237.145 226.262 238.726 225.104Q240.307 223.946 241.912 222.821Q243.516 221.696 245.143 220.603Q246.77 219.511 248.419 218.452Q250.068 217.392 251.738 216.367Q253.408 215.342 255.099 214.351Q256.789 213.36 258.5 212.404Q260.21 211.447 261.94 210.526Q263.67 209.605 265.418 208.719Q267.166 207.833 268.931 206.983Q270.697 206.133 272.48 205.319Q274.263 204.505 276.062 203.728Q277.861 202.951 279.675 202.21Q281.489 201.47 283.319 200.766Q285.148 200.063 286.991 199.397Q288.834 198.731 290.69 198.103Q292.546 197.475 294.415 196.885Q296.284 196.294 298.164 195.742Q300.045 195.19 301.936 194.677Q303.827 194.163 305.728 193.688Q307.63 193.213 309.54 192.777Q311.451 192.341 313.37 191.944Q315.289 191.547 317.216 191.189Q319.142 190.831 321.076 190.513C330.663 188.974 340.364 188.455 350.054 188.176ZM307.874 353.755C300.556 356.635 293.351 359.601 286.454 363.402Q284.038 364.74 281.679 366.176Q279.319 367.612 277.021 369.143Q274.723 370.675 272.489 372.3Q270.256 373.924 268.091 375.639Q265.926 377.354 263.833 379.157Q261.741 380.959 259.724 382.846Q257.707 384.733 255.769 386.701Q253.831 388.669 251.976 390.714Q250.121 392.76 248.351 394.881Q246.581 397.001 244.9 399.192Q243.218 401.383 241.628 403.642Q240.039 405.9 238.543 408.222Q237.047 410.543 235.648 412.925Q234.248 415.306 232.948 417.742Q231.648 420.179 230.448 422.667Q229.249 425.155 228.153 427.69C222.524 440.635 215.965 458.054 221.395 471.87Q221.693 472.621 222.027 473.357Q222.361 474.093 222.73 474.812Q223.1 475.53 223.505 476.23Q223.909 476.929 224.348 477.608Q224.786 478.287 225.257 478.944Q225.728 479.601 226.231 480.233Q226.733 480.866 227.266 481.473Q227.799 482.081 228.362 482.661Q228.924 483.242 229.514 483.794Q230.104 484.346 230.72 484.869Q231.336 485.392 231.978 485.883Q232.619 486.375 233.283 486.835Q233.948 487.295 234.634 487.722Q235.32 488.148 236.027 488.541Q236.733 488.934 237.458 489.291Q238.183 489.648 238.924 489.97C242.016 491.31 245.234 492.219 248.602 492.432C255.366 492.86 262.278 492.638 269.058 492.66L306.303 492.704L351.607 492.676C359.707 492.665 367.896 492.88 375.988 492.558C378.032 492.477 380.441 492.385 382.374 491.668C385.205 490.618 387.768 487.982 388.889 485.203Q389.088 484.706 389.236 484.192Q389.383 483.678 389.478 483.152Q389.573 482.625 389.615 482.092Q389.656 481.558 389.643 481.023Q389.63 480.489 389.563 479.958Q389.496 479.427 389.376 478.906Q389.255 478.384 389.083 477.878Q388.911 477.371 388.688 476.885Q388.439 476.342 388.136 475.827Q387.832 475.312 387.477 474.832Q387.121 474.352 386.718 473.911Q386.314 473.47 385.867 473.073Q385.42 472.677 384.935 472.329Q384.449 471.981 383.93 471.685Q383.41 471.389 382.863 471.149Q382.316 470.909 381.747 470.727C375.801 468.783 364.278 470.259 357.562 469.817L285.479 469.73L264.691 469.827C260.583 469.852 256.35 470.102 252.264 469.708C249.4 469.433 246.896 469.195 244.736 467.107C242.83 465.265 242.028 462.786 242.036 460.174C242.05 455.829 243.649 451.355 244.983 447.264Q246.066 443.873 247.362 440.557Q248.658 437.242 250.163 434.015Q251.667 430.789 253.374 427.665Q255.08 424.54 256.982 421.531Q258.884 418.522 260.973 415.639Q263.062 412.757 265.33 410.013Q267.598 407.269 270.036 404.675Q272.474 402.081 275.072 399.647Q276.054 398.712 277.059 397.8Q278.064 396.889 279.091 396.003Q280.118 395.117 281.166 394.256Q282.214 393.396 283.283 392.561Q284.352 391.726 285.442 390.918Q286.531 390.109 287.64 389.328Q288.748 388.547 289.876 387.793Q291.003 387.039 292.149 386.312Q293.295 385.586 294.458 384.889Q295.621 384.191 296.801 383.522Q297.981 382.853 299.177 382.213Q300.373 381.573 301.584 380.962Q302.795 380.352 304.021 379.771Q305.247 379.191 306.487 378.641Q307.726 378.09 308.979 377.57Q310.232 377.051 311.497 376.562Q312.762 376.073 314.039 375.615Q315.316 375.157 316.604 374.731Q317.891 374.305 319.189 373.91Q320.487 373.516 321.794 373.153Q323.101 372.79 324.416 372.46Q325.732 372.129 327.055 371.831Q328.378 371.533 329.708 371.267Q331.039 371.002 332.375 370.769Q333.711 370.536 335.053 370.336Q336.394 370.136 337.74 369.969Q339.086 369.801 340.436 369.667Q341.786 369.533 343.138 369.432Q344.491 369.331 345.846 369.264Q347.2 369.196 348.556 369.161Q349.912 369.127 351.269 369.125Q352.625 369.124 353.981 369.156C365.746 369.474 377.156 371.02 388.305 374.943C393.102 376.631 398.685 380.033 403.648 380.578C407.12 380.959 410.443 379.869 412.949 377.414C415.197 375.212 416.622 372.078 416.493 368.906C416.374 365.961 414.918 363.334 412.754 361.381C408.491 357.535 401.488 355.687 396.171 353.702C412.138 338.849 422.084 323.639 422.863 301.091C423.521 282.052 417.133 263.696 404.016 249.725C390.833 235.685 373.379 227.594 354.093 227.09C352.886 227.058 351.608 227.017 350.404 227.12C330.45 228.134 312.836 235.464 299.243 250.441C286.132 264.887 280.158 283.372 281.17 302.675C282.21 322.494 292.321 339.834 306.87 352.867Q307.369 353.314 307.874 353.755ZM423.558 431.435C416.924 431.409 399.525 430.548 393.899 431.798C391.767 432.272 389.77 433.258 388.185 434.773C386.081 436.786 385.121 439.54 385.094 442.415C385.065 445.353 385.97 448.125 388.066 450.232C389.62 451.795 391.621 452.829 393.75 453.358C399.71 454.839 416.344 453.791 423.491 453.902C423.528 460.738 422.631 477.688 423.954 483.213C424.523 485.586 425.605 487.812 427.374 489.526C429.798 491.875 432.768 492.619 436.049 492.48Q436.632 492.455 437.214 492.417C440.752 491.025 443.396 489.312 445.038 485.704C447.762 479.72 446.181 461.444 446.355 453.926C453.254 453.875 470.155 454.736 475.735 453.474C477.976 452.967 480.115 451.891 481.753 450.265C483.862 448.171 484.821 445.424 484.788 442.479C484.754 439.481 483.677 436.723 481.473 434.659C479.815 433.107 477.731 432.176 475.524 431.713C469.55 430.46 453.496 431.514 446.385 431.409C446.362 424.666 447.231 407.424 445.928 401.985C445.394 399.76 444.407 397.679 442.793 396.033C440.698 393.894 437.787 392.797 434.805 392.825C434.069 392.832 433.33 392.914 432.599 392.998C429.254 394.005 426.831 395.48 425.124 398.669C422.129 404.262 423.502 424.172 423.558 431.435Z"/>
	<path fill="#00C2FE" d="M349.634 249.587C360.35 248.222 373.388 253.314 381.739 259.772Q382.693 260.516 383.608 261.307Q384.523 262.098 385.397 262.934Q386.272 263.769 387.104 264.648Q387.935 265.526 388.722 266.445Q389.508 267.364 390.248 268.321Q390.988 269.278 391.679 270.271Q392.369 271.264 393.01 272.29Q393.65 273.316 394.238 274.373Q394.827 275.43 395.361 276.515Q395.896 277.6 396.376 278.711Q396.855 279.821 397.279 280.954Q397.702 282.087 398.069 283.24Q398.435 284.393 398.743 285.562Q399.052 286.732 399.301 287.916Q399.55 289.099 399.74 290.294Q399.93 291.488 400.06 292.691Q400.188 293.858 400.258 295.03Q400.329 296.201 400.342 297.375Q400.356 298.549 400.313 299.722Q400.269 300.895 400.169 302.064Q400.069 303.234 399.912 304.397Q399.755 305.56 399.541 306.715Q399.328 307.869 399.059 309.011Q398.79 310.154 398.466 311.282Q398.141 312.41 397.762 313.521Q397.384 314.632 396.951 315.723Q396.519 316.815 396.034 317.884Q395.55 318.953 395.013 319.997Q394.477 321.041 393.891 322.058Q393.305 323.075 392.67 324.062Q392.035 325.05 391.353 326.005Q390.671 326.96 389.943 327.881C380.74 339.518 369.185 344.6 354.757 346.227C342.132 346.658 330.129 342.822 320.522 334.526Q319.613 333.745 318.744 332.921Q317.874 332.096 317.047 331.23Q316.219 330.363 315.436 329.457Q314.652 328.551 313.914 327.607Q313.177 326.663 312.486 325.683Q311.796 324.704 311.155 323.692Q310.514 322.679 309.924 321.637Q309.334 320.594 308.796 319.523Q308.258 318.453 307.774 317.357Q307.289 316.261 306.86 315.142Q306.43 314.024 306.057 312.885Q305.683 311.747 305.366 310.592Q305.049 309.436 304.79 308.266Q304.53 307.097 304.329 305.916Q304.128 304.734 303.985 303.545Q303.843 302.355 303.759 301.16Q303.683 299.991 303.664 298.819Q303.645 297.647 303.682 296.476Q303.72 295.305 303.813 294.137Q303.907 292.969 304.057 291.807Q304.207 290.644 304.412 289.491Q304.618 288.337 304.879 287.195Q305.14 286.052 305.456 284.924Q305.772 283.796 306.142 282.684Q306.512 281.572 306.935 280.479Q307.358 279.386 307.833 278.315Q308.308 277.244 308.834 276.197Q309.36 275.15 309.936 274.129Q310.512 273.109 311.137 272.118Q311.762 271.126 312.433 270.166Q313.105 269.206 313.822 268.279Q314.539 267.352 315.3 266.461C324.194 256.216 336.186 250.566 349.634 249.587Z"/>
</svg>
